<svg height="85.333328" viewBox="0 0 85.333328 85.333328" width="85.333328" xmlns="http://www.w3.org/2000/svg"><g transform="matrix(.13333333 0 0 -.13333333 0 85.333331)"><path d="m640 320c0-176.73-143.27-320-320-320s-320 143.27-320 320 143.27 320 320 320 320-143.27 320-320" fill="#495672"/><path d="m178.508 308.988c-34.52 15.762-58.508 50.586-58.508 91.012 0 3.375.168 6.711.492 10 4.363-43.934 37.16-79.504 79.727-88.043-.871-2.652-1.664-5.34-2.375-8.059-6.711-.968-13.184-2.632-19.336-4.91" fill="#404a5f"/><path d="m320 420c0-55.227-44.77-100-100-100s-100 44.773-100 100 44.77 100 100 100 100-44.773 100-100" fill="#e08e4c"/><path d="m486.668 140h-275c-50.629 0-91.668 39.176-91.668 87.5 0 37.152 24.281 68.816 58.508 81.488 12.64-5.769 26.691-8.988 41.492-8.988 55.23 0 100 44.773 100 100 0 3.375-.168 6.711-.492 10 .258 2.605.418 5.242.469 7.902.007.27.011.536.015.805 6.539.852 13.219 1.293 20.008 1.293 81.004 0 146.668-62.68 146.668-140 40.5 0 73.332-31.34 73.332-70s-32.832-70-73.332-70" fill="#404a5f"/><path d="m220 300c-14.801 0-28.852 3.219-41.492 8.988 6.152 2.278 12.625 3.942 19.336 4.91.711 2.719 1.504 5.407 2.375 8.059 5.972-1.199 12.136-1.867 18.441-1.949h.004.234.016c.074-.004.152-.004.227-.004h.019.223.019c.075-.004.145-.004.219-.004h.027.106.004.105.028.109.16c51.781.082 94.336 39.52 99.348 90 .324-3.289.492-6.625.492-10 0-55.227-44.77-100-100-100" fill="#394051"/><path d="m220 320c-.035 0-.07 0-.109 0zm-.137 0c-.035 0-.07 0-.105 0zm.297 0c54.453.086 98.703 43.695 99.817 97.902-.051-2.66-.211-5.297-.469-7.902-5.012-50.48-47.567-89.918-99.348-90m-.406 0c-.035 0-.07 0-.106 0zm-.133 0c-.074 0-.144 0-.219.004.075-.004.149-.004.219-.004m-.238.004c-.074 0-.149 0-.223 0zm-.242 0c-.075 0-.153 0-.227.004.074-.004.152-.004.227-.004m-.243.004c-.078 0-.156 0-.234 0zm-.238 0c-6.305.082-12.469.75-18.441 1.949 5.972-1.199 12.136-1.867 18.441-1.949" fill="#b77744"/><path d="m320 420.105v.028c0-.012 0-.02 0-.028" fill="#404a5f"/><path d="m200.219 321.957c-13.207 2.652-25.469 7.906-36.239 15.203 7.477 3.219 15.481 5.528 23.864 6.738 14.777 56.606 65.519 99.579 127.777 105.379 2.82-9.222 4.367-19.004 4.379-29.144 0-.008 0-.02 0-.028 0-.035 0-.07 0-.105 0-.43-.004-.863-.008-1.293-56.726-7.402-103.023-45.824-119.773-96.75" fill="#b77744"/><path d="m219.891 320c-.008 0-.016 0-.028 0zm-.133 0h-.004zm-.11 0c-.007 0-.019 0-.027 0zm-.246.004c-.007 0-.011 0-.019 0zm-.242 0c-.008 0-.012 0-.019 0zm-.246.004c-.004 0-.012 0-.016 0zm-.25 0s0 0-.004 0z" fill="#343945"/><path d="m220 320c-.035 0-.07 0-.109 0-.004 0-.02 0-.028 0-.035 0-.07 0-.105 0h-.004c-.035 0-.07 0-.106 0-.007 0-.019 0-.027 0-.07 0-.144 0-.219.004-.004 0-.011 0-.019 0-.074 0-.149 0-.223 0-.008 0-.015 0-.019 0-.075 0-.153 0-.227.004-.004 0-.008 0-.016 0-.078 0-.156 0-.234 0h-.004c-6.305.082-12.469.75-18.441 1.949 16.75 50.926 63.047 89.348 119.773 96.75-.004-.269-.008-.535-.015-.805-1.114-54.207-45.364-97.816-99.817-97.902-.051 0-.105 0-.16 0" fill="#97633d"/><path d="m486.668 300c0 77.32-65.664 140-146.668 140-68.73 0-126.254-45.191-142.156-106.102-44.051-6.375-77.844-42.57-77.844-86.398 0-48.324 41.039-87.5 91.668-87.5h275c40.5 0 73.332 31.34 73.332 70s-32.832 70-73.332 70" fill="#fff"/></g></svg>